<svg t="1720626054091" class="icon" viewBox="0 0 1024 1024" version="1.1" xmlns="http://www.w3.org/2000/svg" p-id="2347" width="32" height="32"><path d="M868.352 178.176H155.648c-11.605333 0-20.48-8.874667-20.48-20.48s8.874667-20.48 20.48-20.48h712.704c11.605333 0 20.48 8.874667 20.48 20.48s-8.874667 20.48-20.48 20.48zM868.352 414.378667H512c-11.605333 0-20.48-8.874667-20.48-20.48s8.874667-20.48 20.48-20.48h356.352c11.605333 0 20.48 8.874667 20.48 20.48s-8.874667 20.48-20.48 20.48zM868.352 650.581333H512c-11.605333 0-20.48-8.874667-20.48-20.48s8.874667-20.48 20.48-20.48h356.352c11.605333 0 20.48 8.874667 20.48 20.48s-8.874667 20.48-20.48 20.48zM868.352 886.784H155.648c-11.605333 0-20.48-8.874667-20.48-20.48s8.874667-20.48 20.48-20.48h712.704c11.605333 0 20.48 8.874667 20.48 20.48s-8.874667 20.48-20.48 20.48zM360.448 512l-102.4-59.392-102.4-58.709333v236.202666l102.4-58.709333z" fill="#6B6C6B" p-id="2348"></path></svg>