<?xml version="1.0" standalone="no"?><!DOCTYPE svg PUBLIC "-//W3C//DTD SVG 1.1//EN" "http://www.w3.org/Graphics/SVG/1.1/DTD/svg11.dtd"><svg t="1731080015483" class="icon" viewBox="0 0 1024 1024" version="1.1" xmlns="http://www.w3.org/2000/svg" p-id="14606" xmlns:xlink="http://www.w3.org/1999/xlink" width="32" height="32"><path d="M957.06 511.84c0 246.74-200.15 446.76-447 446.76S63 758.58 63 511.84 263.13 65.09 510 65.09s447.06 200.02 447.06 446.75z m-81.28 0c0-201.56-164.07-365.52-365.76-365.52s-365.75 164-365.75 365.52S308.33 877.37 510 877.37s365.78-163.96 365.78-365.53z" fill="#0095F8" p-id="14607"></path><path d="M713.22 511.84c0 246.74-91 446.76-203.2 446.76s-203.19-200-203.19-446.76S397.8 65.09 510 65.09s203.22 200.02 203.22 446.75z m-81.28 0c0-237.41-86.52-365.52-121.92-365.52S388.1 274.43 388.1 511.84 474.62 877.37 510 877.37s121.94-128.11 121.94-365.53z" fill="#0095F8" p-id="14608"></path><path d="M144.27 308.78h731.51v81.23H144.27z m0 284.29h731.51v81.23H144.27z" fill="#0095F8" p-id="14609"></path></svg>